<svg width="380" height="130" viewBox="0 0 380 130" fill="none" xmlns="http://www.w3.org/2000/svg">
<g clip-path="url(#clip0_171_144)">
<rect width="380" height="130" rx="15" fill="#FACC5C"/>
<path d="M17.0227 32.7273H23.0909L29.5 48.3636H29.7727L36.1818 32.7273H42.25V56H37.4773V40.8523H37.2841L31.2614 55.8864H28.0114L21.9886 40.7955H21.7955V56H17.0227V32.7273ZM54.0994 56.3409C52.3343 56.3409 50.8078 55.9659 49.5199 55.2159C48.2396 54.4583 47.2509 53.4053 46.554 52.0568C45.857 50.7008 45.5085 49.1288 45.5085 47.3409C45.5085 45.5379 45.857 43.9621 46.554 42.6136C47.2509 41.2576 48.2396 40.2045 49.5199 39.4545C50.8078 38.697 52.3343 38.3182 54.0994 38.3182C55.8646 38.3182 57.3873 38.697 58.6676 39.4545C59.9555 40.2045 60.9479 41.2576 61.6449 42.6136C62.3419 43.9621 62.6903 45.5379 62.6903 47.3409C62.6903 49.1288 62.3419 50.7008 61.6449 52.0568C60.9479 53.4053 59.9555 54.4583 58.6676 55.2159C57.3873 55.9659 55.8646 56.3409 54.0994 56.3409ZM54.1222 52.5909C54.9252 52.5909 55.5956 52.3636 56.1335 51.9091C56.6714 51.447 57.0767 50.8182 57.3494 50.0227C57.6297 49.2273 57.7699 48.322 57.7699 47.3068C57.7699 46.2917 57.6297 45.3864 57.3494 44.5909C57.0767 43.7955 56.6714 43.1667 56.1335 42.7045C55.5956 42.2424 54.9252 42.0114 54.1222 42.0114C53.3116 42.0114 52.6297 42.2424 52.0767 42.7045C51.5313 43.1667 51.1184 43.7955 50.8381 44.5909C50.5653 45.3864 50.429 46.2917 50.429 47.3068C50.429 48.322 50.5653 49.2273 50.8381 50.0227C51.1184 50.8182 51.5313 51.447 52.0767 51.9091C52.6297 52.3636 53.3116 52.5909 54.1222 52.5909ZM77.9858 45.3409V49.1477H68.8722V45.3409H77.9858ZM70.4631 38.5455V56H65.8381V38.5455H70.4631ZM81.0199 38.5455V56H76.429V38.5455H81.0199ZM83.0227 42.3523V38.5455H98.8409V42.3523H93.2159V56H88.6023V42.3523H83.0227ZM106.128 56.3295C105.014 56.3295 104.022 56.1364 103.151 55.75C102.279 55.3561 101.59 54.7765 101.082 54.0114C100.582 53.2386 100.332 52.2765 100.332 51.125C100.332 50.1553 100.51 49.3409 100.866 48.6818C101.223 48.0227 101.707 47.4924 102.321 47.0909C102.935 46.6894 103.632 46.3864 104.412 46.1818C105.2 45.9773 106.026 45.8333 106.889 45.75C107.904 45.6439 108.723 45.5455 109.344 45.4545C109.965 45.3561 110.416 45.2121 110.696 45.0227C110.976 44.8333 111.116 44.553 111.116 44.1818V44.1136C111.116 43.3939 110.889 42.8371 110.435 42.4432C109.988 42.0492 109.351 41.8523 108.526 41.8523C107.654 41.8523 106.961 42.0455 106.446 42.4318C105.931 42.8106 105.59 43.2879 105.423 43.8636L100.946 43.5C101.173 42.4394 101.62 41.5227 102.287 40.75C102.954 39.9697 103.813 39.3712 104.866 38.9545C105.927 38.5303 107.154 38.3182 108.548 38.3182C109.518 38.3182 110.446 38.4318 111.332 38.6591C112.226 38.8864 113.018 39.2386 113.707 39.7159C114.404 40.1932 114.954 40.8068 115.355 41.5568C115.757 42.2992 115.957 43.1894 115.957 44.2273V56H111.366V53.5795H111.23C110.95 54.125 110.575 54.6061 110.105 55.0227C109.635 55.4318 109.071 55.7538 108.412 55.9886C107.753 56.2159 106.991 56.3295 106.128 56.3295ZM107.514 52.9886C108.226 52.9886 108.855 52.8485 109.401 52.5682C109.946 52.2803 110.374 51.8939 110.685 51.4091C110.995 50.9242 111.151 50.375 111.151 49.7614V47.9091C110.999 48.0076 110.791 48.0985 110.526 48.1818C110.268 48.2576 109.976 48.3295 109.651 48.3977C109.325 48.4583 108.999 48.5152 108.673 48.5682C108.348 48.6136 108.052 48.6553 107.787 48.6932C107.219 48.7765 106.723 48.9091 106.298 49.0909C105.874 49.2727 105.545 49.5189 105.31 49.8295C105.075 50.1326 104.957 50.5114 104.957 50.9659C104.957 51.625 105.196 52.1288 105.673 52.4773C106.158 52.8182 106.772 52.9886 107.514 52.9886ZM118.577 56L124.679 46.9205L118.611 38.5455H124.134L128.668 45.375H129.418V38.5455H134.259V45.375H134.986L139.52 38.5455H145.043L138.986 46.9205L145.077 56H139.429L134.94 49.1818H134.259V56H129.418V49.1818H128.736L124.224 56H118.577ZM159.955 45.3409V49.1477H150.841V45.3409H159.955ZM152.432 38.5455V56H147.807V38.5455H152.432ZM162.989 38.5455V56H158.398V38.5455H162.989ZM171.722 56.3295C170.608 56.3295 169.616 56.1364 168.744 55.75C167.873 55.3561 167.184 54.7765 166.676 54.0114C166.176 53.2386 165.926 52.2765 165.926 51.125C165.926 50.1553 166.104 49.3409 166.46 48.6818C166.816 48.0227 167.301 47.4924 167.915 47.0909C168.528 46.6894 169.225 46.3864 170.006 46.1818C170.794 45.9773 171.619 45.8333 172.483 45.75C173.498 45.6439 174.316 45.5455 174.938 45.4545C175.559 45.3561 176.009 45.2121 176.29 45.0227C176.57 44.8333 176.71 44.553 176.71 44.1818V44.1136C176.71 43.3939 176.483 42.8371 176.028 42.4432C175.581 42.0492 174.945 41.8523 174.119 41.8523C173.248 41.8523 172.555 42.0455 172.04 42.4318C171.525 42.8106 171.184 43.2879 171.017 43.8636L166.54 43.5C166.767 42.4394 167.214 41.5227 167.881 40.75C168.547 39.9697 169.407 39.3712 170.46 38.9545C171.521 38.5303 172.748 38.3182 174.142 38.3182C175.112 38.3182 176.04 38.4318 176.926 38.6591C177.82 38.8864 178.612 39.2386 179.301 39.7159C179.998 40.1932 180.547 40.8068 180.949 41.5568C181.35 42.2992 181.551 43.1894 181.551 44.2273V56H176.96V53.5795H176.824C176.544 54.125 176.169 54.6061 175.699 55.0227C175.229 55.4318 174.665 55.7538 174.006 55.9886C173.347 56.2159 172.585 56.3295 171.722 56.3295ZM173.108 52.9886C173.82 52.9886 174.449 52.8485 174.994 52.5682C175.54 52.2803 175.968 51.8939 176.278 51.4091C176.589 50.9242 176.744 50.375 176.744 49.7614V47.9091C176.593 48.0076 176.384 48.0985 176.119 48.1818C175.862 48.2576 175.57 48.3295 175.244 48.3977C174.919 48.4583 174.593 48.5152 174.267 48.5682C173.941 48.6136 173.646 48.6553 173.381 48.6932C172.813 48.7765 172.316 48.9091 171.892 49.0909C171.468 49.2727 171.138 49.5189 170.903 49.8295C170.669 50.1326 170.551 50.5114 170.551 50.9659C170.551 51.625 170.79 52.1288 171.267 52.4773C171.752 52.8182 172.366 52.9886 173.108 52.9886ZM195.534 56V42.3409H192.261C191.375 42.3409 190.701 42.5455 190.239 42.9545C189.777 43.3636 189.549 43.8485 189.557 44.4091C189.549 44.9773 189.769 45.4583 190.216 45.8523C190.67 46.2386 191.337 46.4318 192.216 46.4318H197.148V49.7045H192.216C190.723 49.7045 189.432 49.4773 188.341 49.0227C187.25 48.5682 186.409 47.9356 185.818 47.125C185.227 46.3068 184.936 45.3561 184.943 44.2727C184.936 43.1364 185.227 42.1402 185.818 41.2841C186.409 40.4205 187.254 39.75 188.352 39.2727C189.458 38.7879 190.761 38.5455 192.261 38.5455H200.045V56H195.534ZM184.443 56L189.295 46.9091H193.92L189.08 56H184.443ZM31.4432 71.1364L32.9205 74.2955C32.428 74.7045 31.8826 75.0076 31.2841 75.2045C30.6856 75.3939 29.9697 75.5189 29.1364 75.5795C28.3106 75.6402 27.303 75.6818 26.1136 75.7045C24.7652 75.7197 23.6667 75.9356 22.8182 76.3523C21.9697 76.7689 21.3258 77.4242 20.8864 78.3182C20.447 79.2045 20.1591 80.3636 20.0227 81.7955H20.1932C20.7159 80.7273 21.4508 79.9015 22.3977 79.3182C23.3523 78.7348 24.5303 78.4432 25.9318 78.4432C27.4167 78.4432 28.7159 78.7689 29.8295 79.4205C30.9508 80.072 31.822 81.0076 32.4432 82.2273C33.0644 83.447 33.375 84.9091 33.375 86.6136C33.375 88.3864 33.0265 89.928 32.3295 91.2386C31.6402 92.5417 30.6591 93.553 29.3864 94.2727C28.1136 94.9848 26.5985 95.3409 24.8409 95.3409C23.0758 95.3409 21.553 94.9697 20.2727 94.2273C19 93.4848 18.0152 92.3902 17.3182 90.9432C16.6288 89.4962 16.2841 87.7159 16.2841 85.6023V84.1705C16.2841 79.9659 17.1023 76.8485 18.7386 74.8182C20.375 72.7879 22.7803 71.7576 25.9545 71.7273C26.8182 71.7121 27.5985 71.7083 28.2955 71.7159C28.9924 71.7235 29.6023 71.6894 30.125 71.6136C30.6553 71.5379 31.0947 71.3788 31.4432 71.1364ZM24.8636 91.5909C25.6061 91.5909 26.2424 91.3977 26.7727 91.0114C27.3106 90.625 27.7235 90.072 28.0114 89.3523C28.3068 88.6326 28.4545 87.7727 28.4545 86.7727C28.4545 85.7803 28.3068 84.9394 28.0114 84.25C27.7235 83.553 27.3106 83.0227 26.7727 82.6591C26.2348 82.2955 25.5909 82.1136 24.8409 82.1136C24.2803 82.1136 23.7765 82.2159 23.3295 82.4205C22.8826 82.625 22.5 82.928 22.1818 83.3295C21.8712 83.7235 21.6288 84.2121 21.4545 84.7955C21.2879 85.3712 21.2045 86.0303 21.2045 86.7727C21.2045 88.2652 21.5265 89.4432 22.1705 90.3068C22.822 91.1629 23.7197 91.5909 24.8636 91.5909ZM36.5881 101.545V77.5455H41.3608V80.4773H41.5767C41.7888 80.0076 42.0956 79.5303 42.4972 79.0455C42.9063 78.553 43.4366 78.1439 44.0881 77.8182C44.7472 77.4848 45.5653 77.3182 46.5426 77.3182C47.8153 77.3182 48.9896 77.6515 50.0653 78.3182C51.1411 78.9773 52.0009 79.9735 52.6449 81.3068C53.2888 82.6326 53.6108 84.2955 53.6108 86.2955C53.6108 88.2424 53.2964 89.8864 52.6676 91.2273C52.0464 92.5606 51.1979 93.572 50.1222 94.2614C49.054 94.9432 47.857 95.2841 46.5312 95.2841C45.5919 95.2841 44.7926 95.1288 44.1335 94.8182C43.482 94.5076 42.9479 94.1174 42.5312 93.6477C42.1146 93.1705 41.7964 92.6894 41.5767 92.2045H41.429V101.545H36.5881ZM41.3267 86.2727C41.3267 87.3106 41.4706 88.2159 41.7585 88.9886C42.0464 89.7614 42.4631 90.3636 43.0085 90.7955C43.554 91.2197 44.2169 91.4318 44.9972 91.4318C45.785 91.4318 46.4517 91.2159 46.9972 90.7841C47.5426 90.3447 47.9555 89.7386 48.2358 88.9659C48.5237 88.1856 48.6676 87.2879 48.6676 86.2727C48.6676 85.2652 48.5275 84.3788 48.2472 83.6136C47.9669 82.8485 47.554 82.25 47.0085 81.8182C46.4631 81.3864 45.7926 81.1705 44.9972 81.1705C44.2093 81.1705 43.5426 81.3788 42.9972 81.7955C42.4593 82.2121 42.0464 82.803 41.7585 83.5682C41.4706 84.3333 41.3267 85.2348 41.3267 86.2727ZM61.4631 88.6136L67.7472 77.5455H72.5199V95H67.9062V83.8977L61.6449 95H56.8381V77.5455H61.4631V88.6136ZM88.3551 77.5455V81.3523H81.1051V95H76.4006V77.5455H88.3551ZM95.6591 95.3295C94.5455 95.3295 93.553 95.1364 92.6818 94.75C91.8106 94.3561 91.1212 93.7765 90.6136 93.0114C90.1136 92.2386 89.8636 91.2765 89.8636 90.125C89.8636 89.1553 90.0417 88.3409 90.3977 87.6818C90.7538 87.0227 91.2386 86.4924 91.8523 86.0909C92.4659 85.6894 93.1629 85.3864 93.9432 85.1818C94.7311 84.9773 95.5568 84.8333 96.4205 84.75C97.4356 84.6439 98.2538 84.5455 98.875 84.4545C99.4962 84.3561 99.947 84.2121 100.227 84.0227C100.508 83.8333 100.648 83.553 100.648 83.1818V83.1136C100.648 82.3939 100.42 81.8371 99.9659 81.4432C99.5189 81.0492 98.8826 80.8523 98.0568 80.8523C97.1856 80.8523 96.4924 81.0455 95.9773 81.4318C95.4621 81.8106 95.1212 82.2879 94.9545 82.8636L90.4773 82.5C90.7045 81.4394 91.1515 80.5227 91.8182 79.75C92.4848 78.9697 93.3447 78.3712 94.3977 77.9545C95.4583 77.5303 96.6856 77.3182 98.0795 77.3182C99.0492 77.3182 99.9773 77.4318 100.864 77.6591C101.758 77.8864 102.549 78.2386 103.239 78.7159C103.936 79.1932 104.485 79.8068 104.886 80.5568C105.288 81.2992 105.489 82.1894 105.489 83.2273V95H100.898V92.5795H100.761C100.481 93.125 100.106 93.6061 99.6364 94.0227C99.1667 94.4318 98.6023 94.7538 97.9432 94.9886C97.2841 95.2159 96.5227 95.3295 95.6591 95.3295ZM97.0455 91.9886C97.7576 91.9886 98.3864 91.8485 98.9318 91.5682C99.4773 91.2803 99.9053 90.8939 100.216 90.4091C100.527 89.9242 100.682 89.375 100.682 88.7614V86.9091C100.53 87.0076 100.322 87.0985 100.057 87.1818C99.7992 87.2576 99.5076 87.3295 99.1818 87.3977C98.8561 87.4583 98.5303 87.5152 98.2045 87.5682C97.8788 87.6136 97.5833 87.6553 97.3182 87.6932C96.75 87.7765 96.2538 87.9091 95.8295 88.0909C95.4053 88.2727 95.0758 88.5189 94.8409 88.8295C94.6061 89.1326 94.4886 89.5114 94.4886 89.9659C94.4886 90.625 94.7273 91.1288 95.2045 91.4773C95.6894 91.8182 96.303 91.9886 97.0455 91.9886ZM107.881 100.114V91.1591H109.222C109.608 90.9167 109.919 90.5303 110.153 90C110.396 89.4697 110.593 88.8447 110.744 88.125C110.903 87.4053 111.025 86.6288 111.108 85.7955C111.199 84.9545 111.278 84.1061 111.347 83.25L111.801 77.5455H125.188V91.1591H127.892V100.114H123.278V95H112.608V100.114H107.881ZM114.04 91.1591H120.619V81.2727H115.915L115.733 83.25C115.604 85.1136 115.419 86.697 115.176 88C114.934 89.2955 114.555 90.3485 114.04 91.1591ZM135.69 95.3295C134.577 95.3295 133.584 95.1364 132.713 94.75C131.842 94.3561 131.152 93.7765 130.645 93.0114C130.145 92.2386 129.895 91.2765 129.895 90.125C129.895 89.1553 130.073 88.3409 130.429 87.6818C130.785 87.0227 131.27 86.4924 131.884 86.0909C132.497 85.6894 133.194 85.3864 133.974 85.1818C134.762 84.9773 135.588 84.8333 136.452 84.75C137.467 84.6439 138.285 84.5455 138.906 84.4545C139.527 84.3561 139.978 84.2121 140.259 84.0227C140.539 83.8333 140.679 83.553 140.679 83.1818V83.1136C140.679 82.3939 140.452 81.8371 139.997 81.4432C139.55 81.0492 138.914 80.8523 138.088 80.8523C137.217 80.8523 136.524 81.0455 136.009 81.4318C135.493 81.8106 135.152 82.2879 134.986 82.8636L130.509 82.5C130.736 81.4394 131.183 80.5227 131.849 79.75C132.516 78.9697 133.376 78.3712 134.429 77.9545C135.49 77.5303 136.717 77.3182 138.111 77.3182C139.08 77.3182 140.009 77.4318 140.895 77.6591C141.789 77.8864 142.58 78.2386 143.27 78.7159C143.967 79.1932 144.516 79.8068 144.918 80.5568C145.319 81.2992 145.52 82.1894 145.52 83.2273V95H140.929V92.5795H140.793C140.512 93.125 140.137 93.6061 139.668 94.0227C139.198 94.4318 138.634 94.7538 137.974 94.9886C137.315 95.2159 136.554 95.3295 135.69 95.3295ZM137.077 91.9886C137.789 91.9886 138.418 91.8485 138.963 91.5682C139.509 91.2803 139.937 90.8939 140.247 90.4091C140.558 89.9242 140.713 89.375 140.713 88.7614V86.9091C140.562 87.0076 140.353 87.0985 140.088 87.1818C139.83 87.2576 139.539 87.3295 139.213 87.3977C138.887 87.4583 138.562 87.5152 138.236 87.5682C137.91 87.6136 137.615 87.6553 137.349 87.6932C136.781 87.7765 136.285 87.9091 135.861 88.0909C135.437 88.2727 135.107 88.5189 134.872 88.8295C134.637 89.1326 134.52 89.5114 134.52 89.9659C134.52 90.625 134.759 91.1288 135.236 91.4773C135.721 91.8182 136.334 91.9886 137.077 91.9886Z" fill="white"/>
<g clip-path="url(#clip1_171_144)">
<path d="M358.1 50.2C360.7 44.4 359.7 38.3 355.9 36.6C352.1 34.9 346.8 38.3 344.1 44.1C343 46.4 342.5 49 342.7 51.5L331.8 76.3L344 81.2L353.4 56.2C355.5 54.6 357.1 52.5 358.1 50.2Z" fill="#F9CECE"/>
<path d="M283.1 60.7C276.5 66.9 276.9 77.6 284 83.3L318.7 111.3C322.5 114.4 328.1 113.3 330.5 109C339.6 94.3 341.3 93.5 346.6 78.3L331.6 73.1L323.2 83.7L304.8 62C299.3 55.4 289.3 54.8 283.1 60.7Z" fill="#6C63FF"/>
<path d="M278 50.1L272.3 61.5L293.7 71.9L293.5 53.6L278 50.1Z" fill="#F9CECE"/>
<path d="M293.7 58.7C283.041 58.7 274.4 50.0591 274.4 39.4C274.4 28.7409 283.041 20.1 293.7 20.1C304.359 20.1 313 28.7409 313 39.4C313 50.0591 304.359 58.7 293.7 58.7Z" fill="#F9CECE"/>
<path d="M293.8 67.4L274 55.7C259.5 65.9 247.4 68.3 247 86L249.7 128.3L249.5 146.5C249.4 154.1 255.6 160.4 263.3 160.4H291.6C299.1 160.4 304.6 153.5 303.1 146.2L297.8 121.4L303.5 73.1L293.8 67.4Z" fill="#6C63FF"/>
<path d="M273.8 49.2L277.4 51.8C277.4 51.8 278.5 40.7 279.9 40.2C281.3 39.7 283.3 42.3 283.3 42.3L284.7 46.5L289.4 44.5C289.4 44.5 294.9 41.6 296.8 40.9C298.7 40.2 298.4 34.6 298.4 34.6C298.4 34.6 321.6 37.8 318.1 24.4C318.1 24.4 316.9 14.6 314.3 16.5C311.7 18.4 311.7 13.6 311.7 13.6L305.9 12.4C305.9 12.4 297.9 1.6 282.2 10.8C266.5 19.8 273.8 49.2 273.8 49.2Z" fill="#2F2E41"/>
<path d="M314.1 91.9L319.3 91.1C320.8 90.9 321.8 89.5 321.5 88L320.9 83.8C322.8 85 324.2 87 324.6 89.3C325.2 93 323.1 96.4 319.8 97.7L324.4 127.6C324.4 127.7 324.4 127.7 324.4 127.8C327.9 128.1 331 130.8 331.5 134.4C331.8 136.5 331.3 138.6 330.1 140.2L329.5 136.4C329.3 134.9 327.9 133.9 326.4 134.2L321.2 135C319.7 135.2 318.7 136.6 319 138.1L319.6 142.3C317.7 141.1 316.3 139.2 316 136.8C315.4 133.1 317.5 129.7 320.8 128.3C320.8 128.2 320.8 128.2 320.7 128.1L316.1 98.2C312.6 97.9 309.6 95.2 309 91.6C308.7 89.5 309.2 87.4 310.4 85.8L311 89.6C311.3 91.1 312.6 92.1 314.1 91.9Z" fill="#3F3D56"/>
<path d="M323.8 117.9C330.1 116.6 334.4 112.1 333.4 108C332.4 103.9 326.6 101.6 320.4 103C317.9 103.5 315.6 104.6 313.6 106.3L287.2 112.4L290.5 125.2L316.2 117.9C318.7 118.5 321.3 118.5 323.8 117.9Z" fill="#F9CECE"/>
<path d="M270.7 63.9C261.7 62.3 253.4 69 253.1 78.1L251.3 122.6C251.1 127.5 255.3 131.3 260.1 130.7C277.4 129.2 276.2 131 291.5 126.3L290.5 110L276.2 109.8L282.6 82.1C284.6 73.7 279.2 65.4 270.7 63.9Z" fill="#6C63FF"/>
</g>
</g>
<defs>
<clipPath id="clip0_171_144">
<rect width="380" height="130" rx="15" fill="white"/>
</clipPath>
<clipPath id="clip1_171_144">
<rect width="119.6" height="321.6" fill="white" transform="matrix(-1 0 0 1 359.6 7)"/>
</clipPath>
</defs>
</svg>
