<svg width="380" height="130" viewBox="0 0 380 130" fill="none" xmlns="http://www.w3.org/2000/svg">
<g clip-path="url(#clip0_171_122)">
<rect width="380" height="130" rx="15" fill="#A09AFD"/>
<path d="M17.0227 49.7273H23.0909L29.5 65.3636H29.7727L36.1818 49.7273H42.25V73H37.4773V57.8523H37.2841L31.2614 72.8864H28.0114L21.9886 57.7955H21.7955V73H17.0227V49.7273ZM54.1676 73.3409C52.3722 73.3409 50.8267 72.9773 49.5312 72.25C48.2434 71.5152 47.2509 70.4773 46.554 69.1364C45.857 67.7879 45.5085 66.1932 45.5085 64.3523C45.5085 62.5568 45.857 60.9811 46.554 59.625C47.2509 58.2689 48.232 57.2121 49.4972 56.4545C50.7699 55.697 52.2623 55.3182 53.9744 55.3182C55.1259 55.3182 56.1979 55.5038 57.1903 55.875C58.1903 56.2386 59.0616 56.7879 59.804 57.5227C60.554 58.2576 61.1373 59.1818 61.554 60.2955C61.9706 61.4015 62.179 62.697 62.179 64.1818V65.5114H47.4403V62.5114H57.6222C57.6222 61.8144 57.4706 61.197 57.1676 60.6591C56.8646 60.1212 56.4441 59.7008 55.9062 59.3977C55.3759 59.0871 54.7585 58.9318 54.054 58.9318C53.3191 58.9318 52.6676 59.1023 52.0994 59.4432C51.5388 59.7765 51.0994 60.2273 50.7812 60.7955C50.4631 61.3561 50.3002 61.9811 50.2926 62.6705V65.5227C50.2926 66.3864 50.4517 67.1326 50.7699 67.7614C51.0956 68.3902 51.554 68.875 52.1449 69.2159C52.7358 69.5568 53.4366 69.7273 54.2472 69.7273C54.785 69.7273 55.2775 69.6515 55.7244 69.5C56.1714 69.3485 56.554 69.1212 56.8722 68.8182C57.1903 68.5152 57.4328 68.1439 57.5994 67.7045L62.0767 68C61.8494 69.0758 61.3835 70.0152 60.679 70.8182C59.982 71.6136 59.0805 72.2348 57.9744 72.6818C56.8759 73.1212 55.607 73.3409 54.1676 73.3409ZM77.4858 62.3409V66.1477H68.3722V62.3409H77.4858ZM69.9631 55.5455V73H65.3381V55.5455H69.9631ZM80.5199 55.5455V73H75.929V55.5455H80.5199ZM92.2301 73.3409C90.4347 73.3409 88.8892 72.9773 87.5938 72.25C86.3059 71.5152 85.3134 70.4773 84.6165 69.1364C83.9195 67.7879 83.571 66.1932 83.571 64.3523C83.571 62.5568 83.9195 60.9811 84.6165 59.625C85.3134 58.2689 86.2945 57.2121 87.5597 56.4545C88.8324 55.697 90.3248 55.3182 92.0369 55.3182C93.1884 55.3182 94.2604 55.5038 95.2528 55.875C96.2528 56.2386 97.1241 56.7879 97.8665 57.5227C98.6165 58.2576 99.1998 59.1818 99.6165 60.2955C100.033 61.4015 100.241 62.697 100.241 64.1818V65.5114H85.5028V62.5114H95.6847C95.6847 61.8144 95.5331 61.197 95.2301 60.6591C94.9271 60.1212 94.5066 59.7008 93.9688 59.3977C93.4384 59.0871 92.821 58.9318 92.1165 58.9318C91.3816 58.9318 90.7301 59.1023 90.1619 59.4432C89.6013 59.7765 89.1619 60.2273 88.8438 60.7955C88.5256 61.3561 88.3627 61.9811 88.3551 62.6705V65.5227C88.3551 66.3864 88.5142 67.1326 88.8324 67.7614C89.1581 68.3902 89.6165 68.875 90.2074 69.2159C90.7983 69.5568 91.4991 69.7273 92.3097 69.7273C92.8475 69.7273 93.34 69.6515 93.7869 69.5C94.2339 69.3485 94.6165 69.1212 94.9347 68.8182C95.2528 68.5152 95.4953 68.1439 95.6619 67.7045L100.139 68C99.9119 69.0758 99.446 70.0152 98.7415 70.8182C98.0445 71.6136 97.143 72.2348 96.0369 72.6818C94.9384 73.1212 93.6695 73.3409 92.2301 73.3409ZM102.037 78.1136V69.1591H103.378C103.764 68.9167 104.075 68.5303 104.31 68C104.552 67.4697 104.749 66.8447 104.901 66.125C105.06 65.4053 105.181 64.6288 105.264 63.7955C105.355 62.9545 105.435 62.1061 105.503 61.25L105.957 55.5455H119.344V69.1591H122.048V78.1136H117.435V73H106.764V78.1136H102.037ZM108.196 69.1591H114.776V59.2727H110.071L109.889 61.25C109.76 63.1136 109.575 64.697 109.332 66C109.09 67.2955 108.711 68.3485 108.196 69.1591ZM123.733 73L129.835 63.9205L123.767 55.5455H129.29L133.824 62.375H134.574V55.5455H139.415V62.375H140.142L144.676 55.5455H150.199L144.142 63.9205L150.233 73H144.585L140.097 66.1818H139.415V73H134.574V66.1818H133.892L129.381 73H123.733ZM160.293 73.3409C158.497 73.3409 156.952 72.9773 155.656 72.25C154.368 71.5152 153.376 70.4773 152.679 69.1364C151.982 67.7879 151.634 66.1932 151.634 64.3523C151.634 62.5568 151.982 60.9811 152.679 59.625C153.376 58.2689 154.357 57.2121 155.622 56.4545C156.895 55.697 158.387 55.3182 160.099 55.3182C161.251 55.3182 162.323 55.5038 163.315 55.875C164.315 56.2386 165.187 56.7879 165.929 57.5227C166.679 58.2576 167.262 59.1818 167.679 60.2955C168.096 61.4015 168.304 62.697 168.304 64.1818V65.5114H153.565V62.5114H163.747C163.747 61.8144 163.596 61.197 163.293 60.6591C162.99 60.1212 162.569 59.7008 162.031 59.3977C161.501 59.0871 160.884 58.9318 160.179 58.9318C159.444 58.9318 158.793 59.1023 158.224 59.4432C157.664 59.7765 157.224 60.2273 156.906 60.7955C156.588 61.3561 156.425 61.9811 156.418 62.6705V65.5227C156.418 66.3864 156.577 67.1326 156.895 67.7614C157.221 68.3902 157.679 68.875 158.27 69.2159C158.861 69.5568 159.562 69.7273 160.372 69.7273C160.91 69.7273 161.402 69.6515 161.849 69.5C162.296 69.3485 162.679 69.1212 162.997 68.8182C163.315 68.5152 163.558 68.1439 163.724 67.7045L168.202 68C167.974 69.0758 167.509 70.0152 166.804 70.8182C166.107 71.6136 165.205 72.2348 164.099 72.6818C163.001 73.1212 161.732 73.3409 160.293 73.3409ZM171.463 79.5455V55.5455H176.236V58.4773H176.452C176.664 58.0076 176.971 57.5303 177.372 57.0455C177.781 56.553 178.312 56.1439 178.963 55.8182C179.622 55.4848 180.44 55.3182 181.418 55.3182C182.69 55.3182 183.865 55.6515 184.94 56.3182C186.016 56.9773 186.876 57.9735 187.52 59.3068C188.164 60.6326 188.486 62.2955 188.486 64.2955C188.486 66.2424 188.171 67.8864 187.543 69.2273C186.921 70.5606 186.073 71.572 184.997 72.2614C183.929 72.9432 182.732 73.2841 181.406 73.2841C180.467 73.2841 179.668 73.1288 179.009 72.8182C178.357 72.5076 177.823 72.1174 177.406 71.6477C176.99 71.1705 176.671 70.6894 176.452 70.2045H176.304V79.5455H171.463ZM176.202 64.2727C176.202 65.3106 176.346 66.2159 176.634 66.9886C176.921 67.7614 177.338 68.3636 177.884 68.7955C178.429 69.2197 179.092 69.4318 179.872 69.4318C180.66 69.4318 181.327 69.2159 181.872 68.7841C182.418 68.3447 182.83 67.7386 183.111 66.9659C183.399 66.1856 183.543 65.2879 183.543 64.2727C183.543 63.2652 183.402 62.3788 183.122 61.6136C182.842 60.8485 182.429 60.25 181.884 59.8182C181.338 59.3864 180.668 59.1705 179.872 59.1705C179.084 59.1705 178.418 59.3788 177.872 59.7955C177.334 60.2121 176.921 60.803 176.634 61.5682C176.346 62.3333 176.202 63.2348 176.202 64.2727ZM194.747 60.9091H199.963C202.274 60.9091 204.077 61.4621 205.372 62.5682C206.668 63.6667 207.315 65.1364 207.315 66.9773C207.315 68.1742 207.024 69.2273 206.44 70.1364C205.857 71.0379 205.016 71.7424 203.918 72.25C202.819 72.75 201.501 73 199.963 73H191.713V55.5455H196.338V69.1932H199.963C200.774 69.1932 201.44 68.9886 201.963 68.5795C202.486 68.1705 202.751 67.6477 202.759 67.0114C202.751 66.3371 202.486 65.7879 201.963 65.3636C201.44 64.9318 200.774 64.7159 199.963 64.7159H194.747V60.9091ZM209.19 73V55.5455H214.031V73H209.19Z" fill="white"/>
<path d="M275.57 24.7183C275.347 23.9255 278.562 31.2825 277.798 31.3776C274.297 31.7899 266.563 33.5657 264.112 34.5487C264.017 34.5487 263.889 34.517 263.794 34.517C263.539 34.4853 263.284 34.4536 263.03 34.3902C257.364 33.312 253.068 28.6822 252.94 23.0693C252.94 23.0058 252.94 22.9107 252.94 22.8156C252.94 22.435 252.972 22.0545 253.004 21.674C253.068 21.1349 253.163 20.6275 253.29 20.1201C251.031 17.9955 251.986 14.095 254.85 12.446C256.091 11.7166 257.492 11.2727 258.924 11.1458C259.306 11.1141 259.688 11.0824 260.102 11.0824H263.762C264.526 10.9239 265.29 10.797 266.054 10.7653C273.438 10.1945 279.262 14.6975 278.721 20.1518C278.721 20.1518 278.721 20.1518 278.721 20.1835C278.562 20.4055 278.435 20.6275 278.307 20.8495C278.18 21.0397 278.085 21.23 277.989 21.4203C277.321 22.8156 279.039 24.5597 277.894 24.9085C276.366 25.3525 281.904 39.686 275.857 39.686C278.817 40.447 276.207 26.938 275.57 24.7183Z" fill="#2F2E41"/>
<path d="M315.355 153.783C313.446 153.561 308.671 153.149 308.671 153.149C308.671 153.149 306.412 148.456 306.762 146.997C307.112 145.538 308.035 145.221 307.175 144.46C305.138 136.976 305.457 124.831 305.457 124.831C305.457 124.831 294.54 119.567 283.464 113.446C272.642 107.485 261.693 100.698 260.707 97.3053C260.038 94.8635 259.624 92.39 259.402 89.8531C259.242 88.2042 259.147 86.5869 259.083 85.1282C258.924 81.7985 258.988 79.3567 258.988 79.3567L272.769 79.1347L281.904 78.9128H282.859V80.4983L285.246 84.5574C285.246 84.5574 289.384 89.3775 288.906 89.8214C288.333 90.3605 288.492 90.8362 290.593 91.2484C291.198 91.3436 291.803 91.3753 292.407 91.3119C295.781 91.0582 297.181 92.9925 297.277 93.4048C297.85 96.3857 303.515 102.855 308.831 108.373C313.732 113.478 318.347 117.759 318.347 117.759L318.602 123.213L319.811 148.804C319.811 148.804 317.52 147.536 319.557 150.295C321.689 153.054 317.265 154.005 315.355 153.783Z" fill="#2F2E41"/>
<path d="M367.108 94.2927L369.049 89.98L352.817 80.2446L349.921 86.6503L367.108 94.2927Z" fill="#F9CECE"/>
<path d="M380.348 83.606C381.43 84.0817 381.908 85.3501 381.43 86.4283L377.547 95.0538L373.792 95.1489L376.624 97.115L375.16 100.381L364.562 94.5781L365.007 93.4048L366.789 88.6481L367.362 87.126L370.482 88.5213L378.343 83.7646C378.98 83.3523 379.712 83.3206 380.348 83.606Z" fill="#2F2E41"/>
<path d="M358.737 83.7963C358.737 83.828 358.705 83.828 358.705 83.8597C357.814 85.477 356.35 89.2506 356.286 89.4726C356.286 89.4726 351.48 89.2189 350.239 88.3627C348.998 87.4748 350.875 88.8701 348.043 87.0308C346.579 86.0795 341.55 84.5574 337.062 83.3523C332.861 82.2107 329.137 81.3228 329.137 81.3228C329.137 81.3228 325.827 84.3037 321.052 88.4578C316.628 92.2949 310.899 97.115 305.361 101.428C293.489 104.916 280.981 107.929 277.83 106.216C275.634 104.979 273.533 103.521 271.592 101.903L274.806 93.4999L283.336 84.5891L292.312 80.9423L295.813 79.5153L300.714 77.5175L327.323 66.7356L356.795 76.9149C356.795 76.9149 354.727 78.5639 358.069 77.7077C361.41 76.8515 359.66 82.0522 358.737 83.7963Z" fill="#2F2E41"/>
<path d="M265.704 34.8658H275.252L276.748 38.1638L283.145 41.0178C284.832 41.7789 286.073 43.2693 286.455 45.0769C288.747 55.5733 285.851 57.7297 285.755 61.1862C285.437 72.9193 283.782 75.266 283.973 78.1517C284.036 79.0079 284.546 82.4327 286.264 82.1156C287.983 81.7985 287.06 83.1621 287.442 83.6694C287.792 84.1134 289.638 83.5109 288.461 85.033C287.283 86.5552 292.248 90.6776 289.224 90.6776C283.495 90.6776 272.037 93.5316 267.581 93.5316C263.125 93.5316 259.688 94.8635 257.715 94.8001C256.505 94.7684 256.887 89.1872 257.365 84.3671C257.46 83.2889 259.593 83.2889 257.683 81.2911C255.773 79.2933 258.033 78.2151 258.033 77.676C258.033 77.1052 259.115 75.6782 257.778 73.3633C256.442 71.0484 257.683 71.9997 257.619 71.2703C257.174 65.6257 256.537 58.4273 256.537 58.4273L253.736 50.5312C252.24 46.3453 254.341 41.7155 258.51 40.0982L261.82 38.798L265.704 34.8658Z" fill="#6C63FF"/>
<path d="M332.765 31.9484C331.97 33.4388 330.092 34.0096 328.564 33.2169C328.405 33.1534 328.277 33.0583 328.15 32.9632L314.687 40.5422L311.663 37.3393L327.705 28.4602C328.85 27.1917 330.792 27.0649 332.065 28.2065C333.147 29.1261 333.434 30.68 332.765 31.9484Z" fill="#F9CECE"/>
<path d="M272.196 49.8653L272.005 52.307L298.773 51.9582L325.413 37.0222L321.53 31.0605L298.105 40.8593L281.458 41.2081C276.589 41.3032 272.61 45.0452 272.196 49.8653Z" fill="#6C63FF"/>
<path d="M277.536 25.82C278.305 21.1005 275.088 16.6536 270.351 15.8876C265.614 15.1217 261.151 18.3267 260.382 23.0462C259.614 27.7658 262.83 32.2127 267.567 32.9786C272.304 33.7446 276.768 30.5395 277.536 25.82Z" fill="#F9CECE"/>
<path d="M278.753 20.5958C278.594 20.6592 278.467 20.7543 278.307 20.8178C278.148 20.8812 277.989 20.9763 277.862 21.0397C274.965 22.3399 272.578 22.4985 271.146 20.5958C271.114 19.6127 270.891 18.6297 270.478 17.7101C270.541 18.7248 270.287 19.7396 269.714 20.5958H266.817C263.826 22.5619 262.298 22.7839 264.367 29.253C264.94 31.0605 267.231 41.5569 266.34 43.1108C266.085 43.0791 263.285 34.4219 263.03 34.3902C257.365 33.312 253.068 28.6822 252.94 23.0693C252.94 22.7839 252.972 22.4985 253.004 22.2131C253.386 21.6423 253.8 21.1349 254.245 20.6275C254.245 19.1371 254.595 17.6466 255.264 16.3148C256.091 14.6024 257.428 13.1754 259.051 12.224C260.038 11.7484 261.025 11.3678 262.075 11.0824C262.107 11.0824 262.139 11.0824 262.139 11.0507C262.457 10.9556 262.775 10.8921 263.094 10.8287C263.762 10.7019 264.462 10.575 265.131 10.5116C265.194 10.5116 265.226 10.5116 265.258 10.5116C265.544 10.5116 265.799 10.575 266.022 10.7336C266.181 10.8287 266.34 10.9556 266.467 11.1141C266.658 11.3678 266.786 11.6849 266.786 12.0338H270C270.128 12.0338 270.223 12.0338 270.35 12.0338C274.806 12.1923 278.435 15.6805 278.689 20.1201C278.753 20.2787 278.753 20.4372 278.753 20.5958Z" fill="#2F2E41"/>
<path d="M257.11 22.1814C260.274 22.1814 262.839 19.6258 262.839 16.4733C262.839 13.3209 260.274 10.7653 257.11 10.7653C253.946 10.7653 251.381 13.3209 251.381 16.4733C251.381 19.6258 253.946 22.1814 257.11 22.1814Z" fill="#2F2E41"/>
<path d="M264.112 12.0337C264.208 15.1732 261.534 17.7418 258.383 17.7418C255.232 17.7418 252.654 15.1732 252.654 12.0337C252.654 8.89434 256.473 8.86263 258.383 6.32573C261.057 2.74236 263.953 7.78444 264.112 12.0337Z" fill="#2F2E41"/>
<path d="M271.592 101.301C270.701 88.1407 273.31 75.7733 280.535 64.4524C280.917 62.8986 282.477 61.9472 284.037 62.3278L311.982 69.0506C313.541 69.4311 314.496 70.9849 314.114 72.5388L305.17 109.387C304.788 110.941 303.229 111.892 301.669 111.512L273.724 104.789C272.196 104.44 271.242 102.855 271.592 101.301Z" fill="#F2F2F2"/>
<path opacity="0.2" d="M277.066 104.091C275.506 103.711 274.552 102.157 274.934 100.603C274.042 87.4431 276.652 75.0757 283.877 63.7548C284.005 63.2791 284.259 62.8035 284.609 62.4546L284.068 62.3278C282.509 61.9472 280.949 62.8986 280.567 64.4524C273.342 75.8051 270.732 88.1724 271.623 101.301C271.242 102.855 272.196 104.409 273.756 104.789L301.701 111.512C302.719 111.766 303.77 111.448 304.47 110.687L277.066 104.091Z" fill="black"/>
<path d="M302.369 88.5847L283.623 84.1134C283.018 83.9549 282.636 83.3523 282.763 82.7181C282.922 82.1156 283.527 81.7351 284.164 81.8619L302.911 86.3332C303.515 86.4918 303.897 87.0943 303.77 87.7285C303.611 88.3627 303.006 88.7433 302.369 88.5847Z" fill="white"/>
<path d="M289.224 78.9762L285.087 77.9931C284.45 77.8346 284.068 77.2321 284.227 76.5978C284.387 75.9953 284.991 75.5831 285.628 75.7416L289.766 76.7247C290.37 76.8832 290.752 77.4858 290.625 78.12C290.466 78.7225 289.861 79.103 289.224 78.9762Z" fill="white"/>
<path d="M300.014 98.4469L281.267 93.9756C280.663 93.817 280.281 93.2145 280.408 92.5803C280.567 91.9778 281.172 91.5972 281.808 91.7241L300.555 96.1954C301.192 96.3539 301.574 96.9564 301.415 97.5907C301.255 98.1932 300.651 98.5737 300.014 98.4469Z" fill="white"/>
<path d="M301.192 93.4999L282.445 89.0286C281.808 88.8701 281.426 88.2676 281.586 87.6333C281.745 86.9991 282.35 86.6186 282.986 86.7771L301.733 91.2484C302.338 91.407 302.719 92.0095 302.592 92.6437C302.433 93.2779 301.796 93.6585 301.192 93.4999Z" fill="white"/>
<path d="M297.245 70.3824C299.899 70.3824 302.051 68.2386 302.051 65.594C302.051 62.9495 299.899 60.8056 297.245 60.8056C294.591 60.8056 292.439 62.9495 292.439 65.594C292.439 68.2386 294.591 70.3824 297.245 70.3824Z" fill="#3F3D56"/>
<path d="M272.928 104.06C271.432 103.235 270.891 101.364 271.719 99.8739C271.814 99.7153 271.878 99.5885 272.005 99.4616L264.558 85.9526L267.804 82.9718L276.525 99.0811C277.798 100.223 277.894 102.189 276.716 103.426C275.761 104.504 274.202 104.757 272.928 104.06Z" fill="#F9CECE"/>
<path d="M264.239 44.3158L256.251 43.5547C254.786 43.4279 253.45 44.5061 253.322 45.9648C253.322 46.0599 253.322 46.1233 253.322 46.2185V69.9385L267.963 96.671L274.011 92.8657L264.462 69.3994L264.239 44.3158Z" fill="#6C63FF"/>
<path d="M327.418 42.3814C329.264 29.3164 334.388 17.7735 343.81 8.16499C344.51 6.73799 346.228 6.10376 347.693 6.80141L373.632 19.1371C375.065 19.8347 375.701 21.5471 375.001 23.0059L358.61 57.2223C357.909 58.6493 356.191 59.2835 354.727 58.5859L328.787 46.2502C327.354 45.5525 326.75 43.8401 327.418 42.3814Z" fill="#F2F2F2"/>
<path opacity="0.2" d="M332.192 46.2502C330.76 45.5525 330.124 43.8401 330.824 42.3814C332.67 29.3164 337.794 17.7735 347.215 8.16499C347.438 7.72104 347.788 7.30879 348.202 7.0551L347.693 6.80141C346.229 6.10376 344.51 6.73799 343.81 8.16499C334.388 17.7735 329.264 29.3481 327.418 42.3814C326.718 43.8401 327.354 45.5525 328.787 46.2502L354.727 58.5859C355.681 59.0298 356.764 58.9347 357.623 58.3322L332.192 46.2502Z" fill="black"/>
<path d="M360.169 36.2611L342.759 28.0479C342.186 27.7625 341.932 27.0966 342.218 26.5258C342.505 25.955 343.173 25.7013 343.746 25.9867L361.156 34.1999C361.729 34.4853 361.983 35.1512 361.697 35.722C361.442 36.2928 360.742 36.5465 360.169 36.2611Z" fill="white"/>
<path d="M349.316 24.1474L345.496 22.3399C344.924 22.0545 344.669 21.3886 344.955 20.8178C345.242 20.247 345.91 19.9933 346.483 20.2787L350.303 22.0862C350.875 22.3716 351.13 23.0376 350.844 23.6084C350.589 24.1792 349.889 24.4328 349.316 24.1474Z" fill="white"/>
<path d="M355.809 45.4257L338.399 37.2125C337.826 36.9271 337.571 36.2611 337.858 35.6903C338.144 35.1195 338.813 34.8658 339.385 35.1512L356.795 43.3645C357.368 43.6499 357.623 44.3158 357.337 44.8866C357.114 45.4574 356.414 45.6794 355.809 45.4257C355.841 45.4257 355.841 45.4257 355.809 45.4257Z" fill="white"/>
<path d="M358.005 40.8593L340.595 32.6461C340.022 32.3607 339.767 31.6947 340.054 31.1239C340.34 30.5531 341.009 30.2994 341.582 30.5848L358.991 38.798C359.564 39.0834 359.819 39.7494 359.533 40.3202C359.246 40.8593 358.578 41.113 358.005 40.8593Z" fill="white"/>
<path d="M359.915 17.4881C362.569 17.4881 364.721 15.3443 364.721 12.6997C364.721 10.0551 362.569 7.9113 359.915 7.9113C357.26 7.9113 355.109 10.0551 355.109 12.6997C355.109 15.3443 357.26 17.4881 359.915 17.4881Z" fill="#3F3D56"/>
<path d="M213.001 104.932C217.189 98.9921 222.664 94.2916 229.854 91.2102C230.566 90.6425 231.595 90.6228 232.174 91.1756L242.4 101.188C242.96 101.752 242.864 102.668 242.133 103.247L225.28 116.969C224.568 117.537 223.539 117.557 222.96 117.004L212.734 106.991C212.174 106.427 212.289 105.5 213.001 104.932Z" fill="#F2F2F2"/>
</g>
<defs>
<clipPath id="clip0_171_122">
<rect width="380" height="130" rx="15" fill="white"/>
</clipPath>
</defs>
</svg>
