<svg width="430" height="180" viewBox="0 0 430 180" fill="none" xmlns="http://www.w3.org/2000/svg">
<g filter="url(#filter0_d_171_62)">
<g clip-path="url(#clip0_171_62)">
<rect x="25" y="21" width="380" height="130" rx="15" fill="#9ACF59"/>
<path d="M50.4886 94.3182C48.7917 94.3182 47.2803 94.0265 45.9545 93.4432C44.6364 92.8523 43.5947 92.0417 42.8295 91.0114C42.072 89.9735 41.6818 88.7765 41.6591 87.4205H46.6136C46.6439 87.9886 46.8295 88.4886 47.1705 88.9205C47.5189 89.3447 47.9811 89.6742 48.5568 89.9091C49.1326 90.1439 49.7803 90.2614 50.5 90.2614C51.25 90.2614 51.9129 90.1288 52.4886 89.8636C53.0644 89.5985 53.5152 89.2311 53.8409 88.7614C54.1667 88.2917 54.3295 87.75 54.3295 87.1364C54.3295 86.5152 54.1553 85.9659 53.8068 85.4886C53.4659 85.0038 52.9735 84.625 52.3295 84.3523C51.6932 84.0795 50.9356 83.9432 50.0568 83.9432H47.8864V80.3295H50.0568C50.7992 80.3295 51.4545 80.2008 52.0227 79.9432C52.5985 79.6856 53.0455 79.3295 53.3636 78.875C53.6818 78.4129 53.8409 77.875 53.8409 77.2614C53.8409 76.678 53.7008 76.1667 53.4205 75.7273C53.1477 75.2803 52.7614 74.9318 52.2614 74.6818C51.7689 74.4318 51.1932 74.3068 50.5341 74.3068C49.8674 74.3068 49.2576 74.428 48.7045 74.6705C48.1515 74.9053 47.7083 75.2424 47.375 75.6818C47.0417 76.1212 46.8636 76.6364 46.8409 77.2273H42.125C42.1477 75.8864 42.5303 74.7045 43.2727 73.6818C44.0152 72.6591 45.0152 71.8598 46.2727 71.2841C47.5379 70.7008 48.9659 70.4091 50.5568 70.4091C52.1629 70.4091 53.5682 70.7008 54.7727 71.2841C55.9773 71.8674 56.9129 72.6553 57.5795 73.6477C58.2538 74.6326 58.5871 75.7386 58.5795 76.9659C58.5871 78.2689 58.1818 79.3561 57.3636 80.2273C56.553 81.0985 55.4962 81.6515 54.1932 81.8864V82.0682C55.9053 82.2879 57.2083 82.8826 58.1023 83.8523C59.0038 84.8144 59.4508 86.0189 59.4432 87.4659C59.4508 88.7917 59.0682 89.9697 58.2955 91C57.5303 92.0303 56.4735 92.8409 55.125 93.4318C53.7765 94.0227 52.2311 94.3182 50.4886 94.3182ZM68.0028 94.3295C66.8892 94.3295 65.8968 94.1364 65.0256 93.75C64.1544 93.3561 63.465 92.7765 62.9574 92.0114C62.4574 91.2386 62.2074 90.2765 62.2074 89.125C62.2074 88.1553 62.3854 87.3409 62.7415 86.6818C63.0975 86.0227 63.5824 85.4924 64.196 85.0909C64.8097 84.6894 65.5066 84.3864 66.2869 84.1818C67.0748 83.9773 67.9006 83.8333 68.7642 83.75C69.7794 83.6439 70.5975 83.5455 71.2188 83.4545C71.84 83.3561 72.2907 83.2121 72.571 83.0227C72.8513 82.8333 72.9915 82.553 72.9915 82.1818V82.1136C72.9915 81.3939 72.7642 80.8371 72.3097 80.4432C71.8627 80.0492 71.2263 79.8523 70.4006 79.8523C69.5294 79.8523 68.8362 80.0455 68.321 80.4318C67.8059 80.8106 67.465 81.2879 67.2983 81.8636L62.821 81.5C63.0483 80.4394 63.4953 79.5227 64.1619 78.75C64.8286 77.9697 65.6884 77.3712 66.7415 76.9545C67.8021 76.5303 69.0294 76.3182 70.4233 76.3182C71.393 76.3182 72.321 76.4318 73.2074 76.6591C74.1013 76.8864 74.893 77.2386 75.5824 77.7159C76.2794 78.1932 76.8286 78.8068 77.2301 79.5568C77.6316 80.2992 77.8324 81.1894 77.8324 82.2273V94H73.2415V91.5795H73.1051C72.8248 92.125 72.4498 92.6061 71.9801 93.0227C71.5104 93.4318 70.946 93.7538 70.2869 93.9886C69.6278 94.2159 68.8665 94.3295 68.0028 94.3295ZM69.3892 90.9886C70.1013 90.9886 70.7301 90.8485 71.2756 90.5682C71.821 90.2803 72.2491 89.8939 72.5597 89.4091C72.8703 88.9242 73.0256 88.375 73.0256 87.7614V85.9091C72.8741 86.0076 72.6657 86.0985 72.4006 86.1818C72.143 86.2576 71.8513 86.3295 71.5256 86.3977C71.1998 86.4583 70.8741 86.5152 70.5483 86.5682C70.2225 86.6136 69.9271 86.6553 69.6619 86.6932C69.0938 86.7765 68.5975 86.9091 68.1733 87.0909C67.7491 87.2727 67.4195 87.5189 67.1847 87.8295C66.9498 88.1326 66.8324 88.5114 66.8324 88.9659C66.8324 89.625 67.071 90.1288 67.5483 90.4773C68.0331 90.8182 68.6468 90.9886 69.3892 90.9886ZM91.9062 88.6477L96.6335 76.5455H100.315L93.5085 94H90.2926L83.6449 76.5455H87.3153L91.9062 88.6477ZM86.2131 76.5455V94H81.5881V76.5455H86.2131ZM97.8381 94V76.5455H102.406V94H97.8381ZM114.105 94.3409C112.31 94.3409 110.764 93.9773 109.469 93.25C108.181 92.5152 107.188 91.4773 106.491 90.1364C105.795 88.7879 105.446 87.1932 105.446 85.3523C105.446 83.5568 105.795 81.9811 106.491 80.625C107.188 79.2689 108.17 78.2121 109.435 77.4545C110.707 76.697 112.2 76.3182 113.912 76.3182C115.063 76.3182 116.135 76.5038 117.128 76.875C118.128 77.2386 118.999 77.7879 119.741 78.5227C120.491 79.2576 121.075 80.1818 121.491 81.2955C121.908 82.4015 122.116 83.697 122.116 85.1818V86.5114H107.378V83.5114H117.56C117.56 82.8144 117.408 82.197 117.105 81.6591C116.802 81.1212 116.382 80.7008 115.844 80.3977C115.313 80.0871 114.696 79.9318 113.991 79.9318C113.257 79.9318 112.605 80.1023 112.037 80.4432C111.476 80.7765 111.037 81.2273 110.719 81.7955C110.401 82.3561 110.238 82.9811 110.23 83.6705V86.5227C110.23 87.3864 110.389 88.1326 110.707 88.7614C111.033 89.3902 111.491 89.875 112.082 90.2159C112.673 90.5568 113.374 90.7273 114.185 90.7273C114.723 90.7273 115.215 90.6515 115.662 90.5C116.109 90.3485 116.491 90.1212 116.81 89.8182C117.128 89.5152 117.37 89.1439 117.537 88.7045L122.014 89C121.787 90.0758 121.321 91.0152 120.616 91.8182C119.92 92.6136 119.018 93.2348 117.912 93.6818C116.813 94.1212 115.545 94.3409 114.105 94.3409ZM125.276 100.545V76.5455H130.048V79.4773H130.264C130.476 79.0076 130.783 78.5303 131.185 78.0455C131.594 77.553 132.124 77.1439 132.776 76.8182C133.435 76.4848 134.253 76.3182 135.23 76.3182C136.503 76.3182 137.677 76.6515 138.753 77.3182C139.829 77.9773 140.688 78.9735 141.332 80.3068C141.976 81.6326 142.298 83.2955 142.298 85.2955C142.298 87.2424 141.984 88.8864 141.355 90.2273C140.734 91.5606 139.885 92.572 138.81 93.2614C137.741 93.9432 136.545 94.2841 135.219 94.2841C134.279 94.2841 133.48 94.1288 132.821 93.8182C132.17 93.5076 131.635 93.1174 131.219 92.6477C130.802 92.1705 130.484 91.6894 130.264 91.2045H130.116V100.545H125.276ZM130.014 85.2727C130.014 86.3106 130.158 87.2159 130.446 87.9886C130.734 88.7614 131.151 89.3636 131.696 89.7955C132.241 90.2197 132.904 90.4318 133.685 90.4318C134.473 90.4318 135.139 90.2159 135.685 89.7841C136.23 89.3447 136.643 88.7386 136.923 87.9659C137.211 87.1856 137.355 86.2879 137.355 85.2727C137.355 84.2652 137.215 83.3788 136.935 82.6136C136.654 81.8485 136.241 81.25 135.696 80.8182C135.151 80.3864 134.48 80.1705 133.685 80.1705C132.897 80.1705 132.23 80.3788 131.685 80.7955C131.147 81.2121 130.734 81.803 130.446 82.5682C130.158 83.3333 130.014 84.2348 130.014 85.2727ZM172.946 90.1932L172.605 99H168.162V94H166.219V90.1932H172.946ZM145.526 76.5455H150.151V90.1591H155.071V76.5455H159.696V90.1591H164.616V76.5455H169.241V94H145.526V76.5455ZM180.463 87.6136L186.747 76.5455H191.52V94H186.906V82.8977L180.645 94H175.838V76.5455H180.463V87.6136ZM195.401 94V76.5455H200.241V83.3182H201.605L206.355 76.5455H212.037L205.866 85.2045L212.105 94H206.355L202.048 87.8068H200.241V94H195.401ZM218.776 87.6136L225.06 76.5455H229.832V94H225.219V82.8977L218.957 94H214.151V76.5455H218.776V87.6136Z" fill="white"/>
<g clip-path="url(#clip1_171_62)">
<path d="M321 153.451L333.898 166.349L431.349 68.898L418.451 56L400.701 73.75L385.217 89.234L369.726 104.726L355.165 119.286L321 153.451Z" fill="#FFD600"/>
<path d="M369.726 104.726L375.5 110.5M369.726 104.726L385.217 89.234M369.726 104.726L355.165 119.286M385.217 89.234L388.753 92.7696M385.217 89.234L400.701 73.75M400.701 73.75L418.451 56L431.349 68.898L333.898 166.349L321 153.451L355.165 119.286M400.701 73.75L406.476 79.5244M355.165 119.286L358.701 122.822" stroke="#E6B163"/>
<path d="M365.187 129.134C365.009 129.311 364.819 129.437 364.614 129.51C364.411 129.583 364.211 129.603 364.015 129.569C363.82 129.536 363.646 129.447 363.494 129.302L364.022 128.775C364.127 128.868 364.25 128.907 364.39 128.892C364.529 128.876 364.653 128.814 364.76 128.707C364.845 128.622 364.902 128.527 364.929 128.424C364.957 128.32 364.955 128.215 364.924 128.111C364.893 128.004 364.834 127.907 364.745 127.818C364.654 127.728 364.556 127.667 364.449 127.637C364.342 127.606 364.236 127.605 364.131 127.633C364.025 127.662 363.929 127.719 363.842 127.804C363.767 127.88 363.709 127.968 363.669 128.07C363.63 128.172 363.617 128.269 363.631 128.362L363.061 128.758L361.827 127.281L363.399 125.709L363.843 126.153L362.72 127.277L363.297 127.988L363.312 127.972C363.294 127.864 363.309 127.743 363.359 127.61C363.408 127.477 363.489 127.354 363.602 127.241C363.757 127.086 363.932 126.984 364.126 126.935C364.32 126.887 364.516 126.891 364.713 126.948C364.91 127.004 365.091 127.115 365.255 127.281C365.429 127.453 365.543 127.647 365.596 127.863C365.65 128.078 365.643 128.296 365.575 128.517C365.507 128.737 365.378 128.943 365.187 129.134Z" fill="black"/>
<path d="M376.902 112.206L379.473 114.777L378.93 115.321L376.874 113.265L376.859 113.28L376.64 114.238L376.157 113.756L376.391 112.717L376.902 112.206ZM381.149 113.214C380.932 113.429 380.693 113.562 380.432 113.612C380.172 113.662 379.9 113.628 379.616 113.512C379.333 113.395 379.052 113.195 378.771 112.913C378.491 112.632 378.293 112.352 378.179 112.072C378.065 111.79 378.034 111.521 378.086 111.263C378.138 111.004 378.271 110.766 378.486 110.551C378.701 110.336 378.938 110.203 379.197 110.152C379.456 110.1 379.727 110.131 380.008 110.245C380.288 110.358 380.568 110.555 380.848 110.836C381.13 111.118 381.329 111.401 381.445 111.685C381.563 111.968 381.596 112.239 381.547 112.5C381.498 112.76 381.365 112.998 381.149 113.214ZM380.698 112.763C380.846 112.616 380.889 112.424 380.829 112.188C380.769 111.952 380.59 111.687 380.293 111.391C380.098 111.196 379.915 111.054 379.745 110.964C379.576 110.874 379.423 110.832 379.285 110.84C379.147 110.847 379.03 110.899 378.932 110.997C378.785 111.143 378.741 111.334 378.8 111.568C378.859 111.803 379.034 112.066 379.325 112.359C379.522 112.557 379.707 112.702 379.878 112.795C380.05 112.886 380.205 112.928 380.344 112.922C380.482 112.914 380.6 112.861 380.698 112.763Z" fill="black"/>
<path d="M391.751 97.3565L394.323 99.9278L393.779 100.471L391.724 98.4161L391.709 98.4312L391.489 99.3891L391.007 98.907L391.24 97.8674L391.751 97.3565ZM395.908 98.4127C395.73 98.5901 395.54 98.7157 395.335 98.7893C395.132 98.8621 394.932 98.8818 394.737 98.8483C394.541 98.8148 394.367 98.7257 394.215 98.5809L394.743 98.0536C394.848 98.1473 394.971 98.1862 395.111 98.1703C395.25 98.1544 395.374 98.0929 395.481 97.9858C395.566 97.9004 395.623 97.8062 395.651 97.7033C395.678 97.5987 395.676 97.494 395.646 97.3894C395.615 97.2831 395.555 97.1856 395.466 97.0969C395.376 97.0065 395.277 96.9462 395.17 96.9161C395.063 96.8851 394.957 96.8839 394.852 96.9123C394.747 96.9408 394.65 96.9977 394.563 97.0831C394.488 97.1584 394.43 97.2471 394.39 97.3492C394.351 97.4505 394.338 97.5476 394.352 97.6405L393.782 98.0373L392.548 96.5595L394.12 94.9876L394.565 95.4321L393.441 96.5557L394.018 97.2664L394.033 97.2513C394.015 97.1425 394.031 97.0215 394.08 96.8885C394.129 96.7554 394.21 96.6323 394.323 96.5193C394.478 96.3645 394.653 96.2628 394.847 96.2142C395.041 96.1657 395.237 96.1699 395.435 96.2268C395.631 96.2829 395.812 96.3938 395.976 96.5595C396.15 96.7319 396.264 96.9261 396.317 97.1421C396.371 97.3563 396.364 97.5744 396.296 97.7962C396.228 98.0163 396.099 98.2218 395.908 98.4127Z" fill="black"/>
<path d="M301 69.4513L313.898 82.3493L411.349 -15.102L398.451 -28L380.701 -10.25L365.217 5.23402L349.726 20.7256L335.165 35.2861L301 69.4513Z" fill="#FFD600"/>
<path d="M349.726 20.7256L355.5 26.5M349.726 20.7256L365.217 5.23402M349.726 20.7256L335.165 35.2861M365.217 5.23402L368.753 8.76955M365.217 5.23402L380.701 -10.25M380.701 -10.25L398.451 -28L411.349 -15.102L313.898 82.3493L301 69.4513L335.165 35.2861M380.701 -10.25L386.476 -4.47565M335.165 35.2861L338.701 38.8216" stroke="#E6B163"/>
<path d="M345.187 45.1338C345.009 45.3113 344.819 45.4368 344.614 45.5105C344.411 45.5833 344.211 45.603 344.015 45.5695C343.82 45.536 343.646 45.4469 343.494 45.3021L344.022 44.7747C344.127 44.8685 344.25 44.9074 344.39 44.8915C344.529 44.8756 344.653 44.8141 344.76 44.7069C344.845 44.6216 344.902 44.5274 344.929 44.4245C344.957 44.3198 344.955 44.2152 344.924 44.1106C344.893 44.0043 344.834 43.9068 344.745 43.818C344.654 43.7276 344.556 43.6674 344.449 43.6372C344.342 43.6063 344.236 43.605 344.131 43.6335C344.025 43.6619 343.929 43.7189 343.842 43.8042C343.767 43.8796 343.709 43.9683 343.669 44.0704C343.63 44.1717 343.617 44.2688 343.631 44.3617L343.061 44.7584L341.827 43.2807L343.399 41.7088L343.843 42.1532L342.72 43.2769L343.297 43.9875L343.312 43.9725C343.294 43.8637 343.309 43.7427 343.359 43.6096C343.408 43.4765 343.489 43.3535 343.602 43.2405C343.757 43.0857 343.932 42.984 344.126 42.9354C344.32 42.8869 344.516 42.8911 344.713 42.948C344.91 43.004 345.091 43.115 345.255 43.2807C345.429 43.4531 345.543 43.6473 345.596 43.8632C345.65 44.0775 345.643 44.2956 345.575 44.5174C345.507 44.7375 345.378 44.943 345.187 45.1338Z" fill="black"/>
<path d="M356.902 28.2057L359.473 30.777L358.93 31.3206L356.874 29.2654L356.859 29.2804L356.64 30.2384L356.157 29.7563L356.391 28.7167L356.902 28.2057ZM361.149 29.2142C360.932 29.4293 360.693 29.562 360.432 29.6122C360.172 29.6616 359.9 29.6281 359.616 29.5117C359.333 29.3946 359.052 29.1949 358.771 28.9129C358.491 28.6325 358.293 28.3521 358.179 28.0717C358.065 27.7904 358.034 27.5209 358.086 27.2631C358.138 27.0036 358.271 26.7664 358.486 26.5512C358.701 26.3361 358.938 26.203 359.197 26.152C359.456 26.1001 359.727 26.1311 360.008 26.2449C360.288 26.3579 360.568 26.555 360.848 26.8362C361.13 27.1183 361.329 27.4012 361.445 27.685C361.563 27.9679 361.596 28.2395 361.547 28.4998C361.498 28.7601 361.365 28.9982 361.149 29.2142ZM360.698 28.7635C360.846 28.6161 360.889 28.4245 360.829 28.1884C360.769 27.9524 360.59 27.6866 360.293 27.3912C360.098 27.1962 359.915 27.0539 359.745 26.9643C359.576 26.8739 359.423 26.8325 359.285 26.84C359.147 26.8467 359.03 26.899 358.932 26.9969C358.785 27.1434 358.741 27.3338 358.8 27.5682C358.859 27.8026 359.034 28.0662 359.325 28.3592C359.522 28.5567 359.707 28.7019 359.878 28.7948C360.05 28.8861 360.205 28.9284 360.344 28.9217C360.482 28.9141 360.6 28.8614 360.698 28.7635Z" fill="black"/>
<path d="M247.022 203.081L231 187.058L273.442 144.617L291.529 126.529L310.773 107.285L330.008 88.0498L352.058 66L368.081 82.0224L247.022 203.081Z" fill="#FFD600" stroke="#E5B163"/>
</g>
<path d="M136.022 262.081L120 246.058L162.442 203.617L180.529 185.529L199.773 166.285L219.008 147.05L241.058 125L257.081 141.022L136.022 262.081Z" fill="#FFD600" stroke="#E5B163"/>
<path d="M318.043 109.6C333.363 109.6 345.782 97.1807 345.782 81.8607C345.782 66.5407 333.363 54.1214 318.043 54.1214C302.723 54.1214 290.304 66.5407 290.304 81.8607C290.304 97.1807 302.723 109.6 318.043 109.6Z" fill="#F9CECE"/>
<path d="M302.1 113.746L300.846 101.05L325.886 96.3893L340.671 132.389L314.957 161.961L296.636 125.961L302.1 113.746Z" fill="#F9CECE"/>
<path d="M300.429 107.414L305.893 108.636C305.893 108.636 301.586 94.975 303.064 93.6893C304.511 92.3714 308.111 94.4286 308.111 94.4286L311.871 98.6393L316.468 93.9786C316.468 93.9786 321.45 87.8071 323.379 86.0714C325.307 84.3357 322.189 77.875 322.189 77.875C322.189 77.875 351.086 70.0964 340.318 56.0821C340.318 56.0821 334.018 45.0893 331.961 48.6893C329.904 52.2571 327.461 46.5679 327.461 46.5679L319.971 47.9821C319.971 47.9821 305.218 39.2714 291.204 57.8821C277.189 76.4929 300.429 107.414 300.429 107.414Z" fill="#2F2E41"/>
<path d="M370.243 150.036C355.071 162.314 336.3 169 316.5 169C298.436 169 281.207 163.439 266.807 153.089C266.839 152.832 266.871 152.543 266.871 152.286C267.257 148.107 267.579 144.057 267.804 140.682C268.671 127.6 299.175 118.889 299.175 118.889C299.175 118.889 299.304 119.018 299.593 119.275C301.264 120.754 308.111 126.121 320.1 127.6C330.804 128.95 334.307 122.586 335.368 119.564C335.689 118.632 335.786 118.021 335.786 118.021L367.157 132.839C369.214 135.764 370.018 142.064 370.179 149.136C370.211 149.425 370.243 149.714 370.243 150.036Z" fill="#6C63FF"/>
</g>
</g>
<defs>
<filter id="filter0_d_171_62" x="0" y="0" width="430" height="180" filterUnits="userSpaceOnUse" color-interpolation-filters="sRGB">
<feFlood flood-opacity="0" result="BackgroundImageFix"/>
<feColorMatrix in="SourceAlpha" type="matrix" values="0 0 0 0 0 0 0 0 0 0 0 0 0 0 0 0 0 0 127 0" result="hardAlpha"/>
<feMorphology radius="1" operator="dilate" in="SourceAlpha" result="effect1_dropShadow_171_62"/>
<feOffset dy="4"/>
<feGaussianBlur stdDeviation="12"/>
<feComposite in2="hardAlpha" operator="out"/>
<feColorMatrix type="matrix" values="0 0 0 0 0 0 0 0 0 0 0 0 0 0 0 0 0 0 0.25 0"/>
<feBlend mode="normal" in2="BackgroundImageFix" result="effect1_dropShadow_171_62"/>
<feBlend mode="normal" in="SourceGraphic" in2="effect1_dropShadow_171_62" result="shape"/>
</filter>
<clipPath id="clip0_171_62">
<rect x="25" y="21" width="380" height="130" rx="15" fill="white"/>
</clipPath>
<clipPath id="clip1_171_62">
<rect width="121" height="135" fill="white" transform="translate(294 16)"/>
</clipPath>
</defs>
</svg>
